<?xml version="1.0" encoding="utf-8"?>
<!-- Generator: Adobe Illustrator 25.1.0, SVG Export Plug-In . SVG Version: 6.00 Build 0)  -->
<svg version="1.1" xmlns="http://www.w3.org/2000/svg" xmlns:xlink="http://www.w3.org/1999/xlink" x="0px" y="0px"
	 viewBox="0 0 985 1006" style="enable-background:new 0 0 985 1006;" xml:space="preserve">
<style type="text/css">
	.st0{fill:url(#SVGID_1_);}
	.st1{fill:url(#SVGID_2_);}
	.st2{fill:url(#SVGID_3_);}
	.st3{fill:url(#SVGID_4_);}
</style>
<g id="Layer_1">
</g>
<g id="Layer_2">
	<g id="SAIL">
		
			<linearGradient id="SVGID_1_" gradientUnits="userSpaceOnUse" x1="372.0185" y1="-244.8814" x2="636.3312" y2="377.8002" gradientTransform="matrix(1 0 0 -1 0 466.6)">
			<stop  offset="8.317282e-02" style="stop-color:#00CAEC"/>
			<stop  offset="0.1026" style="stop-color:#00B7DD"/>
			<stop  offset="0.1457" style="stop-color:#0091C2"/>
			<stop  offset="0.1939" style="stop-color:#0070A9"/>
			<stop  offset="0.2469" style="stop-color:#005594"/>
			<stop  offset="0.3064" style="stop-color:#003E84"/>
			<stop  offset="0.3753" style="stop-color:#002D77"/>
			<stop  offset="0.4595" style="stop-color:#00216E"/>
			<stop  offset="0.5755" style="stop-color:#001A68"/>
			<stop  offset="0.874" style="stop-color:#001867"/>
		</linearGradient>
		<path class="st0" d="M608.7,77.1C463.7,211.2,278.4,468.4,261.6,664.6c83.5,14.1,171.2,44.4,248.8,87.4
			C328.2,361.9,608.7,77.1,608.7,77.1z"/>
		
			<radialGradient id="SVGID_2_" cx="688.8237" cy="-42.5828" r="214.363" gradientTransform="matrix(1 0 0 -1 0 466.6)" gradientUnits="userSpaceOnUse">
			<stop  offset="0.3723" style="stop-color:#FFF1D2"/>
			<stop  offset="0.4953" style="stop-color:#FFF0CF"/>
			<stop  offset="0.585" style="stop-color:#FFECC6"/>
			<stop  offset="0.6641" style="stop-color:#FFE5B6"/>
			<stop  offset="0.7371" style="stop-color:#FFDC9F"/>
			<stop  offset="0.806" style="stop-color:#FFD082"/>
			<stop  offset="0.8717" style="stop-color:#FFC25F"/>
			<stop  offset="0.9349" style="stop-color:#FFB034"/>
			<stop  offset="0.9947" style="stop-color:#FF9D05"/>
			<stop  offset="1" style="stop-color:#FF9B00"/>
		</radialGradient>
		<path class="st1" d="M598.9,174.1c-65.8,64.7-209.4,240.3-63.5,587.5c83.8,50,186.9,62.1,186.9,62.1S383.6,444.5,598.9,174.1z"/>
		
			<radialGradient id="SVGID_3_" cx="270.794" cy="-331.6193" r="162.3994" fx="250.0911" fy="-330.9865" gradientTransform="matrix(1 0 0 -1 0 466.6)" gradientUnits="userSpaceOnUse">
			<stop  offset="8.317282e-02" style="stop-color:#00CAEC"/>
			<stop  offset="0.4864" style="stop-color:#0076AD"/>
			<stop  offset="0.8367" style="stop-color:#00327B"/>
			<stop  offset="1" style="stop-color:#001867"/>
		</radialGradient>
		<path class="st2" d="M173.6,827.9c-8.2-44.7-4.8-122.8,83.5-113.8c115.8,11.8,375.3,150.7,466.1,147.3c90.8-3.7,115-71.7,115-71.7
			s-3.7,122.3-150.7,115C519.6,898.2,194.1,693.6,173.6,827.9z"/>
		
			<linearGradient id="SVGID_4_" gradientUnits="userSpaceOnUse" x1="124.8875" y1="-398.5414" x2="578.6893" y2="-398.5414" gradientTransform="matrix(1 0 0 -1 0 466.6)">
			<stop  offset="8.317282e-02" style="stop-color:#00CAEC"/>
			<stop  offset="0.1026" style="stop-color:#00B7DD"/>
			<stop  offset="0.1457" style="stop-color:#0091C2"/>
			<stop  offset="0.1939" style="stop-color:#0070A9"/>
			<stop  offset="0.2469" style="stop-color:#005594"/>
			<stop  offset="0.3064" style="stop-color:#003E84"/>
			<stop  offset="0.3753" style="stop-color:#002D77"/>
			<stop  offset="0.4595" style="stop-color:#00216E"/>
			<stop  offset="0.5755" style="stop-color:#001A68"/>
			<stop  offset="0.874" style="stop-color:#001867"/>
		</linearGradient>
		<path class="st3" d="M205.9,883.6c-27-59.6-7-84.1,60.4-69.7c51.2,11,113.8,35.1,381.7,106.5c-42.2-3.1-353.4-76.2-381.7-80.7
			C190.2,828.2,205.9,883.6,205.9,883.6z"/>
	</g>
	<g id="SAIL_copia">
	</g>
</g>
</svg>
