<?xml version="1.0" encoding="utf-8"?>
<!-- Generator: Adobe Illustrator 25.1.0, SVG Export Plug-In . SVG Version: 6.00 Build 0)  -->
<svg version="1.1" id="Layer_1" xmlns="http://www.w3.org/2000/svg" xmlns:xlink="http://www.w3.org/1999/xlink" x="0px" y="0px"
	 viewBox="0 0 2963 864" style="enable-background:new 0 0 2963 864;" xml:space="preserve">
<style type="text/css">
	.st0{fill:url(#SVGID_1_);}
	.st1{fill:url(#SVGID_2_);}
	.st2{fill:url(#SVGID_3_);}
	.st3{fill:url(#SVGID_4_);}
	.st4{fill:#FFFFFF;}
</style>
<linearGradient id="SVGID_1_" gradientUnits="userSpaceOnUse" x1="208.4698" y1="652.4172" x2="479.0163" y2="15.0495">
	<stop  offset="8.317281e-02" style="stop-color:#00CAEC"/>
	<stop  offset="0.1026" style="stop-color:#00B7DD"/>
	<stop  offset="0.1457" style="stop-color:#0091C2"/>
	<stop  offset="0.1939" style="stop-color:#0070A9"/>
	<stop  offset="0.2469" style="stop-color:#005594"/>
	<stop  offset="0.3064" style="stop-color:#003E84"/>
	<stop  offset="0.3753" style="stop-color:#002D77"/>
	<stop  offset="0.4595" style="stop-color:#00216E"/>
	<stop  offset="0.5755" style="stop-color:#001A68"/>
	<stop  offset="0.874" style="stop-color:#001867"/>
</linearGradient>
<path class="st0" d="M450.6,3C302.4,140.2,112.5,403.5,95.4,604.4c85.4,14.4,175.2,45.4,254.8,89.5C163.4,294.5,450.6,3,450.6,3z"/>
<radialGradient id="SVGID_2_" cx="532.7031" cy="445.2186" r="219.3993" gradientUnits="userSpaceOnUse">
	<stop  offset="0.3723" style="stop-color:#FFF1D2"/>
	<stop  offset="0.4953" style="stop-color:#FFF0CF"/>
	<stop  offset="0.585" style="stop-color:#FFECC6"/>
	<stop  offset="0.6641" style="stop-color:#FFE5B6"/>
	<stop  offset="0.7371" style="stop-color:#FFDC9F"/>
	<stop  offset="0.806" style="stop-color:#FFD082"/>
	<stop  offset="0.8717" style="stop-color:#FFC25F"/>
	<stop  offset="0.9349" style="stop-color:#FFB034"/>
	<stop  offset="0.9947" style="stop-color:#FF9D05"/>
	<stop  offset="1" style="stop-color:#FF9B00"/>
</radialGradient>
<path class="st1" d="M440.8,102.2c-67.4,66.1-214.4,246.2-64.9,601.5c85.7,51.4,191.1,63.6,191.1,63.6S220.3,379.1,440.8,102.2z"/>
<radialGradient id="SVGID_3_" cx="104.8524" cy="741.0459" r="166.215" fx="83.6629" fy="741.6934" gradientUnits="userSpaceOnUse">
	<stop  offset="8.317281e-02" style="stop-color:#00CAEC"/>
	<stop  offset="0.4864" style="stop-color:#0076AD"/>
	<stop  offset="0.8367" style="stop-color:#00327B"/>
	<stop  offset="1" style="stop-color:#001867"/>
</radialGradient>
<path class="st2" d="M5.3,771.4c-8.4-45.8-4.7-125.8,85.4-116.7c118.5,11.9,384,154.3,476.8,150.7s117.6-73.4,117.6-73.4
	s-3.8,125.1-154.3,117.5C359.4,843.3,26.6,633.9,5.3,771.4z"/>
<linearGradient id="SVGID_4_" gradientUnits="userSpaceOnUse" x1="-44.4824" y1="809.4951" x2="420.0047" y2="809.4951">
	<stop  offset="8.317281e-02" style="stop-color:#00CAEC"/>
	<stop  offset="0.1026" style="stop-color:#00B7DD"/>
	<stop  offset="0.1457" style="stop-color:#0091C2"/>
	<stop  offset="0.1939" style="stop-color:#0070A9"/>
	<stop  offset="0.2469" style="stop-color:#005594"/>
	<stop  offset="0.3064" style="stop-color:#003E84"/>
	<stop  offset="0.3753" style="stop-color:#002D77"/>
	<stop  offset="0.4595" style="stop-color:#00216E"/>
	<stop  offset="0.5755" style="stop-color:#001A68"/>
	<stop  offset="0.874" style="stop-color:#001867"/>
</linearGradient>
<path class="st3" d="M38.4,828.3c-27.6-61-7.1-86.1,61.9-71.1c52.3,11.3,116.6,36,390.8,108.8c-43-2.9-361.7-77.9-390.7-82.3
	C22.3,771.8,38.4,828.3,38.4,828.3z"/>
<g>
	<path class="st4" d="M1493,352.6c-32.7-17.8-65.6-30.9-98.8-39.2c-33.1-8.3-67.8-12.4-103.9-12.4c-48.4,0-84.9,4.4-109.3,13.1
		c-24.4,8.7-36.6,20.5-36.6,35.4c0,15.7,13.4,26.8,40.1,33.1c11,2.5,22.9,4.5,35.7,5.7s26.4,2.2,41.1,2.9s30.2,1.3,46.5,1.9
		c16.3,0.6,33.5,1.8,51.3,3.5c36.1,3.4,67.5,8.3,94.3,14.7c26.8,6.4,49.1,15,66.9,25.8c17.8,10.8,31.1,24.3,39.8,40.5
		c8.7,16.1,13.1,35.5,13.1,58c0,50.1-22.8,89.2-68.5,117.2c-45.7,28-112.7,42.1-201,42.1c-57.8,0-111.1-6.8-159.9-20.4
		c-48.9-13.6-95.4-35.7-139.5-66.3l61.2-75.2c39.9,24.2,79.6,42.2,119.1,53.8c39.5,11.7,80.9,17.5,124.2,17.5
		c46.7,0,82.6-5.9,107.7-17.8c25.1-11.9,37.6-27.4,37.6-46.5c0-10.2-3.6-18-10.8-23.6c-7.2-5.5-17.6-9.8-31.2-12.7
		c-13.6-3-30.2-4.9-49.7-5.7c-19.5-0.8-41.6-1.9-66.3-3.2c-45-1.7-84.3-5.4-117.9-11.2c-33.6-5.7-61.5-14-83.8-24.8
		s-39-24.4-50-40.8c-11.1-16.3-16.6-36-16.6-58.9c0-45.4,21.9-81.4,65.6-108c43.7-26.5,107.7-39.8,191.8-39.8
		c112.6,0,203,22.5,271.4,67.5L1493,352.6z"/>
	<path class="st4" d="M2035.3,683.9L1990,603h-240.8l-45.2,80.9h-115.3L1805.9,292h127.4l217.3,391.9H2035.3z M1869.6,385.7
		L1798.9,515h141.5L1869.6,385.7z"/>
	<path class="st4" d="M2209.2,683.9V292h112.1v391.9H2209.2z"/>
	<path class="st4" d="M2443.7,683.9V292.7h112.1V596h301.4v87.9H2443.7z"/>
</g>
</svg>
