<?xml version="1.0" encoding="utf-8"?>
<!-- Generator: Adobe Illustrator 25.1.0, SVG Export Plug-In . SVG Version: 6.00 Build 0)  -->
<svg version="1.1" id="Layer_1" xmlns="http://www.w3.org/2000/svg" xmlns:xlink="http://www.w3.org/1999/xlink" x="0px" y="0px"
	 viewBox="0 0 2963 864" style="enable-background:new 0 0 2963 864;" xml:space="preserve">
<style type="text/css">
	.st0{fill:url(#SVGID_1_);}
	.st1{fill:url(#SVGID_2_);}
	.st2{fill:url(#SVGID_3_);}
	.st3{fill:url(#SVGID_4_);}
	.st4{fill:#FFFFFF;}
	.st5{font-family:'BlairITC-Bold';}
	.st6{font-size:637.1637px;}
</style>
<linearGradient id="SVGID_1_" gradientUnits="userSpaceOnUse" x1="208.4698" y1="652.4172" x2="479.0163" y2="15.0495">
	<stop  offset="8.317281e-02" style="stop-color:#00CAEC"/>
	<stop  offset="0.1026" style="stop-color:#00B7DD"/>
	<stop  offset="0.1457" style="stop-color:#0091C2"/>
	<stop  offset="0.1939" style="stop-color:#0070A9"/>
	<stop  offset="0.2469" style="stop-color:#005594"/>
	<stop  offset="0.3064" style="stop-color:#003E84"/>
	<stop  offset="0.3753" style="stop-color:#002D77"/>
	<stop  offset="0.4595" style="stop-color:#00216E"/>
	<stop  offset="0.5755" style="stop-color:#001A68"/>
	<stop  offset="0.874" style="stop-color:#001867"/>
</linearGradient>
<path class="st0" d="M450.6,3C302.4,140.2,112.5,403.5,95.4,604.4c85.4,14.4,175.2,45.4,254.8,89.5C163.4,294.5,450.6,3,450.6,3z"/>
<radialGradient id="SVGID_2_" cx="532.7031" cy="445.2186" r="219.3993" gradientUnits="userSpaceOnUse">
	<stop  offset="0.3723" style="stop-color:#FFF1D2"/>
	<stop  offset="0.4953" style="stop-color:#FFF0CF"/>
	<stop  offset="0.585" style="stop-color:#FFECC6"/>
	<stop  offset="0.6641" style="stop-color:#FFE5B6"/>
	<stop  offset="0.7371" style="stop-color:#FFDC9F"/>
	<stop  offset="0.806" style="stop-color:#FFD082"/>
	<stop  offset="0.8717" style="stop-color:#FFC25F"/>
	<stop  offset="0.9349" style="stop-color:#FFB034"/>
	<stop  offset="0.9947" style="stop-color:#FF9D05"/>
	<stop  offset="1" style="stop-color:#FF9B00"/>
</radialGradient>
<path class="st1" d="M440.8,102.2c-67.4,66.1-214.4,246.2-64.9,601.5c85.7,51.4,191.1,63.6,191.1,63.6S220.3,379.1,440.8,102.2z"/>
<radialGradient id="SVGID_3_" cx="104.8524" cy="741.0459" r="166.215" fx="83.6629" fy="741.6934" gradientUnits="userSpaceOnUse">
	<stop  offset="8.317281e-02" style="stop-color:#00CAEC"/>
	<stop  offset="0.4864" style="stop-color:#0076AD"/>
	<stop  offset="0.8367" style="stop-color:#00327B"/>
	<stop  offset="1" style="stop-color:#001867"/>
</radialGradient>
<path class="st2" d="M5.3,771.4c-8.4-45.8-4.7-125.8,85.4-116.7c118.5,11.9,384,154.3,476.8,150.7s117.6-73.4,117.6-73.4
	s-3.8,125.1-154.3,117.5C359.4,843.3,26.6,633.9,5.3,771.4z"/>
<linearGradient id="SVGID_4_" gradientUnits="userSpaceOnUse" x1="-44.4824" y1="809.4951" x2="420.0047" y2="809.4951">
	<stop  offset="8.317281e-02" style="stop-color:#00CAEC"/>
	<stop  offset="0.1026" style="stop-color:#00B7DD"/>
	<stop  offset="0.1457" style="stop-color:#0091C2"/>
	<stop  offset="0.1939" style="stop-color:#0070A9"/>
	<stop  offset="0.2469" style="stop-color:#005594"/>
	<stop  offset="0.3064" style="stop-color:#003E84"/>
	<stop  offset="0.3753" style="stop-color:#002D77"/>
	<stop  offset="0.4595" style="stop-color:#00216E"/>
	<stop  offset="0.5755" style="stop-color:#001A68"/>
	<stop  offset="0.874" style="stop-color:#001867"/>
</linearGradient>
<path class="st3" d="M38.4,828.3c-27.6-61-7.1-86.1,61.9-71.1c52.3,11.3,116.6,36,390.8,108.8c-43-2.9-361.7-77.9-390.7-82.3
	C22.3,771.8,38.4,828.3,38.4,828.3z"/>
<text transform="matrix(1 0 0 1 968.0074 683.8909)" class="st4 st5 st6">Sail</text>
</svg>
